# xmcd
#
# Track frame offsets: 
#        150
#        19290
#        33787
#        55016
#        74680
#        91333
#        107212
#        135876
#        151239
#        175291
#
# Disc length: 2668 seconds
#
# Revision: 4
# Processed by: cddbd v1.5.2PL0 Copyright (c) Steve Scherf et al.
# Submitted via: ExactAudioCopyFreeDBPlugin 1.0
#
DISCID=7b0a6a0a
DTITLE=Sugarland - Live On The Inside
DYEAR=2009
DGENRE=Country
TTITLE0=Love (Rupp Arena, Lexington, KY: 10.25.08)
TTITLE1=Circle (The Centrium, Red Deer, Alberta, Canada: 4.22.09)
TTITLE2=Better Man (Frank Erwin Center, Austin, TX: 4.30.09)
TTITLE3=Sex On Fire (Target Center, Minneapolis, MN: 4.17.09)
TTITLE4=All I Want To Do (Rupp Arena, Lexington, KY: 10.25.08)
TTITLE5=Irreplaceable (Fox Theater, Atlanta, GA: 4.4.08)
TTITLE6=Nightswimming \\ Joey (Rupp Arena, Lexington, KY: 10.25.08)
TTITLE7=The One I Love (Rupp Arena, Lexington, KY: 10.25.08)
TTITLE8=Love Shack (Target Center, Minneapolis, MN: 4.17.09)
TTITLE9=Stay (Rupp Arena, Lexington, KY: 10.25.08)
EXTD=
EXTT0=
EXTT1=
EXTT2=
EXTT3=
EXTT4=
EXTT5=
EXTT6=
EXTT7=
EXTT8=
EXTT9=
PLAYORDER=
